<?xml version="1.0" encoding="utf-8"?>
<!-- Generator: Adobe Illustrator 21.1.0, SVG Export Plug-In . SVG Version: 6.00 Build 0)  -->
<svg version="1.1" xmlns="http://www.w3.org/2000/svg" xmlns:xlink="http://www.w3.org/1999/xlink" x="0px" y="0px" width="240px"
	 height="240px" viewBox="0 0 240 240" style="enable-background:new 0 0 240 240;" xml:space="preserve">
<style type="text/css">
	.st0{fill:#CCD1DB;}
</style>
<g id="PHL_x5F_magazin_xA0_Bild_1_">
</g>
<g id="Ebene_1">
	<g>
		<g>
			<path class="st0" d="M31.1,160.3H36l6.6,17.4l6.4-17.4h5v20.9h-3v-18.1h-0.1L44,181.2h-2.9l-6.9-18.1h-0.1v18.1h-3V160.3z"/>
			<path class="st0" d="M73.2,160.3h3.2l8.8,20.9h-3.3l-2.1-5.3H69.5l-2.1,5.3h-3.1L73.2,160.3z M74.7,163.1l-4.2,10.4h8.3
				L74.7,163.1z"/>
			<path class="st0" d="M111.3,164c-0.7-0.5-1.5-0.8-2.4-1.1c-0.9-0.2-2-0.4-3.3-0.4c-1.2,0-2.3,0.2-3.3,0.6c-1,0.4-1.8,1-2.5,1.7
				c-0.7,0.7-1.3,1.6-1.6,2.6s-0.6,2.1-0.6,3.2c0,1.2,0.2,2.4,0.6,3.4s1,1.9,1.7,2.6c0.7,0.7,1.6,1.3,2.5,1.7s2,0.6,3.1,0.6
				c0.5,0,0.9,0,1.3,0c0.3,0,0.6,0,0.9-0.1c0.2,0,0.5-0.1,0.6-0.1c0.2,0,0.4-0.1,0.5-0.1v-6.4h-4.4v-2.5h7.4v10.9
				c-0.6,0.2-1.4,0.4-2.4,0.6s-2.4,0.3-4,0.3c-1.7,0-3.2-0.3-4.5-0.8c-1.4-0.5-2.5-1.2-3.5-2.2c-1-0.9-1.7-2.1-2.2-3.4
				c-0.5-1.4-0.8-2.9-0.8-4.5c0-1.6,0.3-3.1,0.8-4.4c0.5-1.3,1.3-2.4,2.3-3.4c1-0.9,2.2-1.7,3.5-2.2s2.8-0.8,4.4-0.8
				c0.8,0,1.4,0,2,0.1c0.6,0.1,1.1,0.1,1.6,0.2c0.5,0.1,0.9,0.2,1.3,0.3c0.4,0.1,0.8,0.3,1.3,0.4L111.3,164z"/>
			<path class="st0" d="M130.9,160.3h3.2l8.8,20.9h-3.3l-2.1-5.3h-10.3l-2.1,5.3H122L130.9,160.3z M132.4,163.1l-4.2,10.4h8.3
				L132.4,163.1z"/>
			<path class="st0" d="M151.4,178.5l10.9-15.6h-10.5v-2.6h13.9v2.7l-10.8,15.6h11v2.6h-14.5V178.5z"/>
			<path class="st0" d="M177,160.3h3v20.9h-3V160.3z"/>
			<path class="st0" d="M192.5,160.3h4.1l9.2,16.9h0.1v-16.9h3v20.9h-3.8l-9.5-17.2h-0.1v17.2h-3V160.3z"/>
		</g>
		<g>
			<path class="st0" d="M226.3,116.8c0,0-23.3-0.1-49.5-0.1c7.9-9.9-11.7-14-8.9-20.6c1-2.3,4.2-1.2,5.5-0.1
				c1.7-0.8,4.3-2.9,5.9-3.8c-9.4-2.7-15.1,0.2-16.5,3.4c-0.5,1.2-2.1,3,4.5,10.2c3.4,3.7,8.3,7.2,6,10.9c-10.5,0-21.2,0-31.1-0.1
				c-6.9-6.3-9.1-15.5-8.4-25c5.2,1.1,8.6,2.2,13.6,2.9c9.2,1.2,15.2-3.5,18.3-5.9c3.8-2.8,4-6.4,4-6.4l-5,2.4c0,0,0.6,2.2-1.7,4
				c-3.6,2.8-12.9,2.3-15.7,2.2c-3.1-0.2-8.1-1.5-13.1-2.2c1.6-11.7,7.2-23.4,13.6-30.3l-3.7,2.9c-7.6,8.7-12.4,18-14.1,27
				c-3.3-0.2-6.3,0.2-8.4,1.5c-3.1,1.8-3,3.4-3,3.4s1.8-3.3,6.9-3c1.5,0.2,2.9,0.4,4.2,0.6c-1.1,8.4,0.4,16.4,4.7,23.3
				c0.6,0.9,1.1,1.7,1.7,2.5c-3,0-5.9,0-8.7,0c-28.9,0-62.9,0-86.2,0.1c0.6-5.5,0.8-9.7,1.4-15.2c0.9-0.4,1.4-0.5,1.4-0.5
				s6.3-1.7,12.3-3.7c0,0.1,0,0.1,0,0.2c0,0-1.6,14.7-1.6,14.7l6-2.1l0.6-4.2c0.3-3.1,4-3.6,4-3.6c3.7-0.8,5.3,0.3,5.4,3.4
				c0.2,1.8,0.1,6.3,0.1,6.3l7.2-3.6l0.3-4.3l-2,1.3l0-1.6c0,0,0.3-4.9-3.7-6.5c-6.2-2.5-10.9,1-10.9,1l0-0.1c0.2-1,0.5-2.2,0.7-3.4
				c1.6-0.6,2.8-1.3,3.5-1.8c3.7-2.8,4.5-4.6,4.9-6.6c0.4-1.7,0.7-4-3.9-6.3c1.4-2.5,3-4.9,5-7.1C81,62,88.7,58.7,88.7,58.7
				S72.4,64,63.4,78.9c-0.2-0.1-0.5-0.2-0.7-0.2c-4.3-1.3-9.2-1.7-13.3-1.7c1.8-4.3,3.3-7.4,3.3-7.4s-2.7,2.9-5.8,7.4
				c-3.3,0.1-5.6,0.3-5.6,0.3s-3.3,0-4.9-0.1c-1.6-0.1-2.5-0.6-2.5-0.6l3.1,4.9c0,0,0,0.8,3,0.6c0.8-0.1,2-0.1,3.6-0.1
				c-2.2,3.7-4.3,7.9-5.5,12.2c-0.3,1-0.6,2.4-0.8,4c-1.1,0.7-2.3,1.6-3.5,2.8c-4.8,4.7-1.6,11-1,12.2c0.3,0.8-1.1-3.8,2.7-7.2
				c0.3-0.3,0.6-0.6,0.9-0.8c-0.4,4-0.8,8.2-1.1,11.5c-13.1,0-21.6,0-21.6,0s8.4,0.3,21.5,0.7c-0.2,2.1-0.4,3.7-0.6,4.6
				c-1.3,5.7-5.4,6.2-5.4,6.2s3.7,1.1,7.4-0.2c3.8-1.2,3.7-4,4-6.9c0.2-1.2,0.3-2.4,0.4-3.5c23.3,0.7,57.4,1.4,86.3,1.3
				c3.3,0,6.8-0.1,10.5-0.1c10.1,10.8,25.1,9.7,35.9,0.9c0.6-0.5,1.2-1,1.7-1.5C202.2,117.5,226.3,116.8,226.3,116.8z M68.1,86.5
				c0.1,1.2-0.2,1.7-4.9,3.3c0.4-1.7,1.1-3.6,1.9-5.6C66.9,84.9,68.1,85.6,68.1,86.5z M43.6,94.4c0.5-3.6,2.1-8.2,3.7-12.5
				c4.1,0,8.7,0.2,11.5,0.7c0.8,0.1,1.5,0.3,2.3,0.4c-1.5,2.9-2.7,5.6-3.5,8.5c-0.7,0.2-1.4,0.4-2.2,0.7c-5.3,1.6-9,2.5-11.8,3.3
				C43.5,95.2,43.5,94.8,43.6,94.4z M167.1,120.9c-4.6,1.9-14.1,3.3-22.2-2.2c8.6-0.1,17.9-0.3,27-0.5
				C170.8,119.1,169.3,120,167.1,120.9z"/>
			<path class="st0" d="M209.6,132.9c-1.2-0.6-2.6-1.1-4.4-1.5c-1.8-0.3-3.8-0.5-6.2-0.5c-0.8,0-1.9,0-3.2,0c-1.3,0-2.4,0-3.3,0
				c-1,0-2.2,0-3.7,0c-1.5,0-2.3,0-3.1,0c-0.1,0-0.4,0.1-0.5,0.2c-0.1,0.1-0.1,0.3-0.1,0.7c0,0.4,0.1,0.6,0.1,0.7
				c0.1,0.1,0.4,0.2,0.5,0.2c1.4,0.1,1.9,0.3,2.4,0.5c0.4,0.2,0.6,0.6,0.6,1.2v7c0,0.5-0.2,0.9-0.6,1.2c-0.4,0.2-1,0.4-2.4,0.5
				c-0.1,0-0.4,0.1-0.5,0.2c-0.1,0.1-0.1,0.4-0.1,0.7c0,1.1,0.3,0.9,0.6,0.9c0.8-0.1,1.6,0,3.1,0c1.5,0,2.7,0,3.7,0c0.9,0,2,0,3.2,0
				c1.3,0,2.4,0,3.2,0c2.7,0,4.9-0.2,6.6-0.5c1.6-0.4,3.1-0.9,4.2-1.5c1.1-0.6,1.9-1.4,2.4-2.2c0.5-0.8,0.7-1.7,0.7-2.6
				c0-1-0.3-1.9-0.8-2.7C211.6,134.3,210.8,133.6,209.6,132.9z M204.3,141.3c-1,1-2.9,1.6-5.4,1.6l-1.3,0c-0.5,0-0.9-0.1-1.3-0.2
				c-0.4-0.1-0.7-0.5-0.7-0.9v-7.7c0-0.5,0.2-0.8,0.7-0.9c0.4-0.1,0.9-0.2,1.3-0.2l1.3,0c2.7,0,4.6,0.2,5.5,1.3c1,1.1,1.5,2,1.5,3.8
				C205.9,139.7,205.4,140.2,204.3,141.3z"/>
			<path class="st0" d="M104.9,142.9c-1.1,0-2.4,0.2-3-0.1c-0.6-0.3-0.7-0.4-1.1-1l-7.6-11.1c0,0-0.1-0.1-0.4-0.1
				c-0.2,0-0.4,0-0.7,0c-0.2,0-0.4,0-0.7,0c-0.2,0-0.4,0.1-0.4,0.1l-8.5,11.1c-0.5,0.5-0.8,0.6-1.4,0.9c-0.7,0.4-1.4,0.3-2.6,0.2
				c-0.3,0-0.4,0.3-0.4,0.8c-0.1,0.9,0.1,0.9,0.2,0.9c0.8,0,1.5,0,2,0c0.6,0,1.2,0,2,0c0.9,0,1.6,0,2.2,0c0.5,0,1.1,0.1,2.1,0.1
				c0.1,0,0.4,0.3,0.5-0.9c0-0.9-0.1-0.9-0.4-0.9c-1.2,0-0.9,0.1-1.4,0c-0.6-0.1-0.6-0.3-0.5-0.4c0.1-0.1,1-1.4,1-1.4l7,0
				c0,0,0.2,0.3,0.6,1c0.3,0.7,0.3,0.5,0.3,0.6c0,0.3-0.3,0.2-2,0.3c-0.6,0-0.5,0.2-0.6,0.8c0,0.9,0.3,0.9,0.4,0.9
				c1.1,0,2.2,0,3.5-0.1c1.2,0,2.3,0,3.4,0c0.9,0,2,0,3.1,0c1.1,0,2.2,0,3.3,0c0.1,0,0.2-0.3,0.2-1
				C105.2,143.3,105.1,142.9,104.9,142.9z M87,139.5l3-4.1l2.3,4.1H87z"/>
			<path class="st0" d="M79.6,106.3c-0.6,5.7,12.9,8.4,17.2,3.1c0,0.2,0,0.4,0,0.6c0.2,1.5,3.1,2.4,3.1,2.4l4.4-2.4l0.6-5.1
				c0,0-1.6,1-2.2,1.6c0-1.4,0.8-8.5,0.8-8.5l-5.2-1.1c0,0.2-0.1,1.4-0.2,1.9C82.6,96.9,79.7,104.8,79.6,106.3z M86.1,105.9
				c0.6-2,3.3-2.7,4.6-3.1c1.8-0.6,5.4-0.2,7,0c-0.1,0.8-0.2,1.6-0.3,2.4c-1.2,1-2.6,1.9-3.6,2.3C90.2,108.6,85.6,107.6,86.1,105.9z
				"/>
			<path class="st0" d="M112.2,107.3c0.3-3.4,4.3-4.6,4.3-4.6c3.7-0.9,5.3,1,5.4,4.4c0.2,2,0.1,5.4,0.1,5.4l7.2-3.7l0.3-4.4l-2,1.5
				l0-0.8c0,0,0.3-5.4-3.7-7.2c-6.2-2.7-10.9,1.1-10.9,1.1c0.1-0.6,0.2-1.9,0.2-1.9l-5.8,2.6c0,0-1.3,12.4-1.4,12.9l6-2.3
				L112.2,107.3z"/>
			<path class="st0" d="M183.2,98.1l3-1.1l0.8-2.7l-1.1-1.3l-4.4-0.8c-0.3,1.1-0.6,2.4-0.4,3.6C181.5,97.3,183.2,98.1,183.2,98.1z"
				/>
			<path class="st0" d="M179.3,110.1c0.2,1.4,2.8,3.1,2.8,3.1l4.4-2.5l0.4-5c0,0-1.4,1.2-2,1.7c0-1.3,0.8-6.6,0.8-6.6l-4.9-1
				C180.5,100.9,179.1,108.9,179.3,110.1z"/>
			<path class="st0" d="M156.1,97.3c0,0.2-0.1,1.4-0.2,1.9c-15.5-1.9-18.3,6.1-18.5,7.5c-0.6,5.7,12.9,8.4,17.2,3.1
				c0,0.2,0,0.4,0,0.6c0.2,1.5,2.5,2.4,2.5,2.4l5-2.4l0.6-5.1c0,0-1.6,1-2.2,1.6c0-1.4,0.8-8.5,0.8-8.5L156.1,97.3z M155.3,105.5
				c-1.2,1-2.6,1.9-3.6,2.3c-3.7,1.3-8.2,0.2-7.7-1.5c0.6-2,3.6-2.7,4.9-3.1c1.8-0.6,5.1-0.2,6.7,0
				C155.5,103.9,155.4,104.7,155.3,105.5z"/>
			<path class="st0" d="M205.3,109.6c0,0.2,0,0.4,0,0.6c0.2,1.5,3.1,2.4,3.1,2.4l4.4-2.4l0.6-5.1c0,0-1.6,1-2.2,1.6
				c0-1.4,0.8-8.5,0.8-8.5l-5.2-1.1c0,0.2-0.1,1.4-0.2,1.9c-15.5-1.9-18.3,6.1-18.5,7.5C187.5,112.2,201,114.9,205.3,109.6z
				 M194.6,106c0.6-2,3.6-2.7,4.9-3.1c1.8-0.6,5.1-0.2,6.7,0c-0.1,0.8-0.2,1.6-0.3,2.4c-1.2,1-2.6,1.9-3.6,2.3
				C198.7,108.8,194.1,107.7,194.6,106z"/>
			<path class="st0" d="M52.5,139.4c-0.2-0.1-0.5-0.1-0.7-0.1c-0.5,0-0.8,0.3-0.8,0.4c-0.3,1.1-0.8,1.8-2.1,2.6
				c-1.2,0.9-2.7,0.7-4.3,0.7h-2c-0.5,0-0.9-0.1-1.4-0.2c-0.4-0.2-0.7-0.5-0.7-0.9v-7.6c0-0.5,0.2-0.8,0.7-1.1
				c0.4-0.3,1.3-0.7,2.6-0.8c0.1,0,0.1-0.1,0.2-0.2c0.1-0.1,0.1-0.5,0.1-0.6c0-0.1,0-0.5-0.1-0.6c-0.1-0.1-0.1-0.2-0.2-0.2
				c-1.1,0-2.3,0-3.4,0c-1.1,0-2.2,0-3.3,0c-1,0-2.1,0-3.3,0c-1.2,0-2.3,0-3.4,0c-0.1,0-0.1,0-0.2,0.1c-0.1,0.1-0.1,0.5-0.1,0.6
				c0,0.1,0,0.4,0.1,0.5c0.1,0.1,0.1,0.2,0.2,0.2c1.3,0.1,2.2,0.6,2.6,0.8c0.4,0.2,0.6,0.6,0.6,1.2v7.2c0,0.5-0.2,0.9-0.6,1.2
				c-0.4,0.2-1.3,0.4-2.6,0.5c-0.1,0-0.1,0.1-0.2,0.2c-0.1,0.1-0.1,0.5-0.1,0.5c0,0.1,0,0.5,0.1,0.6c0.1,0.1,0.1,0.1,0.2,0.1
				c1.1,0,2.9,0,5.2-0.1c2.3,0,4.2,0,5.7,0c1.4,0,3.1,0,5.3,0c2.2,0,4,0,5.4,0.1c0-0.5,0.1-1.3,0.3-2.4c0.1-1.1,0.3-2,0.5-2.7
				C52.8,139.5,52.7,139.4,52.5,139.4z"/>
			<path class="st0" d="M159.5,130.9c-0.8,0-1.5,0-2.3,0.1c-0.8,0-1.6,0.1-2.4,0.1c-0.8,0-1.5,0-2.1-0.1c-0.6,0-1.4-0.1-2.3-0.1
				c-0.1,0-0.1,0.1-0.2,0.2c-0.1,0.1-0.1,0.5-0.1,0.6c0,0.1,0,0.8,0.1,0.9c0.1,0.1,0.1,0.1,0.2,0.2c1.3,0.1,1.7,0.3,2.2,0.5
				c0.5,0.2,0.8,0.6,0.8,1.2v4.7l-14.3-8.1c-0.9,0-1.6,0-2.1,0c-0.5,0-1.1,0-1.8,0c-0.5,0-1.1,0-1.9,0c-0.8,0-1.4,0-2,0
				c-0.1,0-0.1,0-0.2,0.1c0,0,0,0,0,0.1c0,0.1-0.1,0.3-0.1,0.5c0,0.4,0,0.7,0.1,0.8c0,0.1,0.1,0.2,0.2,0.2c1.5,0.1,2.2,0.3,2.7,0.7
				c0.5,0.4,0.8,0.6,0.8,1.3l-0.6,6.9c0,0.5-0.3,0.9-0.8,1.2c-0.5,0.2-1.1,0.1-2.4,0.2c-0.1,0-0.1,0.1-0.2,0.2
				c-0.1,0.1-0.1,0.4-0.1,0.7c0,0,0,0.1,0,0.1c0,0,0,0,0,0c0,0,0,0,0,0.1c0,0,0,0,0,0c0,0,0,0,0,0c0,0.2,0,0.4,0.1,0.5
				c0.1,0.1,0.1,0.2,0.2,0.2c0.8,0,1.5,0,2.2,0c0.7,0,1.5,0,2.3,0c0.8,0,1.6,0,2.3,0c0.7,0,1.5,0,2.4,0c0.1,0,0.1-0.1,0.2-0.2
				c0,0,0,0,0-0.1c0-0.2,0.1-0.4,0.1-0.5c0,0,0,0,0-0.1c0,0,0,0,0-0.1c0-0.3,0-0.6-0.1-0.7c-0.1-0.1-0.1-0.1-0.2-0.1
				c-1.3-0.1-2,0-2.5-0.2c-0.5-0.3-0.8-0.6-0.7-1.2l0.2-5.9l16.4,9.2c0.1,0.1,0.2,0.1,0.4,0.1c0.2,0,0.4,0,0.7,0
				c0.3,0,0.6,0,0.7-0.1c0.1,0,0.5-0.7,0.5-0.7l0.4-9.6c0-0.5,0.3-1.2,0.8-1.5c0.5-0.2,1.1-0.4,2.4-0.5c0.1,0,0.1-0.1,0.2-0.2
				c0.1-0.1,0.1-0.8,0.1-0.9c0-0.1,0-0.5-0.1-0.6C159.6,131,159.5,130.9,159.5,130.9z"/>
		</g>
	</g>
</g>
</svg>
