<svg id="Layer_1" data-name="Layer 1" xmlns="http://www.w3.org/2000/svg" viewBox="0 0 90.7 90"><defs><style>.cls-1{fill:#ffdb57;}.cls-2,.cls-3{fill:#27306c;stroke:#27306c;}.cls-3{stroke-miterlimit:10;stroke-width:4px;}</style></defs><path class="cls-1" d="M-24.19-2.48a45.21,45.21,0,0,0-5.57-21.7,45.2,45.2,0,0,0-15.3-16.38,45.33,45.33,0,0,0-21.31-7,45.28,45.28,0,0,0-22.07,4A45.4,45.4,0,0,0-105.9-29.52a45.29,45.29,0,0,0-8.55,20.71A45.25,45.25,0,0,0-112,13.45,45.19,45.19,0,0,0-99.16,31.82,47.71,47.71,0,0,0-72,42.14a47.73,47.73,0,0,0,28.13-7.37,45.25,45.25,0,0,0,14.44-16.2A45.18,45.18,0,0,0-24.19-2.48Z" transform="translate(114.9 47.75)"/><path class="cls-2" d="M-46.81,3.1l-.08.22.11.21a19.29,19.29,0,0,0,5.51,6.39l.21.16a8.91,8.91,0,0,1,1.4,1.22,1.68,1.68,0,0,1,.37,1.39,4.75,4.75,0,0,1-2.12,3.06l-.47.38c-.38.3-.76.6-1.09.9A3.61,3.61,0,0,0-44,18.57a4.82,4.82,0,0,0-.12.82c0,.34,0,.77-.08,1.25v.11c0,.93-.12,2.06-.23,3.25l-.05.05a3,3,0,0,1-.48.27c-.44.22-1,.44-1.65.67l0,0c-.6.22-1.21.45-1.69.68a3.7,3.7,0,0,0-.66.38,1,1,0,0,0-.42.66.91.91,0,0,0,.3.73,3,3,0,0,0,.59.44,15.5,15.5,0,0,0,1.48.78l.08,0c.56.28,1.09.54,1.47.78a1.77,1.77,0,0,1,.38.3l0,0A43,43,0,0,1-46,35.47,46.83,46.83,0,0,1-68.6,41.75c-13.75-2.69-25-12.8-31.09-24.63a57.37,57.37,0,0,1-3.48-19.67h0a54.43,54.43,0,0,1,2.28-15.68c2.19-5,7-11,12.53-16.4s11.84-10.09,17.13-12.62h1.83a41.93,41.93,0,0,1,17.32,3.53c-.21.77-.44,1.57-.68,2.39a56.26,56.26,0,0,0-1.62,6.38c-.52,3.09-.45,6.15,1.33,8.6C-47.88-19.2-42.52-8.13-46.81,3.1ZM-44.46,24Zm-.67,5.87Z" transform="translate(114.9 47.75)"/><path class="cls-1" d="M-64.26,26.75c.09-.83,4.9-1.83,5-2.67.27-2.55.27-4.89.43-5.41.64-1.91,4.5-3,4.85-6s-3.63-2.45-7.54-9.48c4.37-11.48-1.12-24-6.32-31.2-3.41-4.66.33-13.9,1.77-19.64a26.5,26.5,0,0,0-3.34-.14A45.43,45.43,0,0,0-100-35.17a54.77,54.77,0,0,0-10.15,15.49,55.37,55.37,0,0,0-2.32,15.82A58,58,0,0,0-109,16,57,57,0,0,0-90.21,37.13a44.28,44.28,0,0,0,20.45,5.1,56.35,56.35,0,0,0,8.1-.65c.6-3.25,1.37-8.86,1.7-11.87C-59.8,28.88-64.34,27.52-64.26,26.75Z" transform="translate(114.9 47.75)"/><path class="cls-3" d="M-69.3-11.07a16.6,16.6,0,0,0-6.12-7,18.46,18.46,0,0,0-10.46-2.77H-101v1.21H-86.1a18.28,18.28,0,0,1,10,2.38,15.57,15.57,0,0,1,5.87,6.56,19.49,19.49,0,0,1,1.87,8.32,18.86,18.86,0,0,1-2.19,9.19A15.67,15.67,0,0,1-76.46,13c-2.56,1.43-6.63,1.55-9.62,1.55H-100V-12h-1V15.56h14.93c3,0,7.67-.16,10.22-1.69a17,17,0,0,0,6.2-6.47,19.51,19.51,0,0,0,2.34-9.67A20.76,20.76,0,0,0-69.3-11.07Z" transform="translate(114.9 47.75)"/><path class="cls-3" d="M-100-12.1-84.12,14h.71l-.3-26.09H-85l.29,23.62L-98.55-12.1Z" transform="translate(114.9 47.75)"/></svg>