<svg xmlns="http://www.w3.org/2000/svg" viewBox="0 0 48 48"><defs><style>.cls-1{fill:#ffdb57;}</style></defs><g id="Layer_2" data-name="Layer 2"><g id="Layer_1-2" data-name="Layer 1"><path class="cls-1" d="M16.65,12h1.44l1,3.7L20,12h1.45l-1.66,5.5v3.76H18.35V17.5Zm6.6,2.37a1.76,1.76,0,0,0-1.87,1.84v3.35a1.65,1.65,0,0,0,1.87,1.83,1.73,1.73,0,0,0,1.82-1.83V16.21A1.78,1.78,0,0,0,23.25,14.37Zm.53,5.13c0,.37-.19.65-.53.65a.58.58,0,0,1-.56-.65V16.32c0-.37.17-.65.53-.65s.56.27.56.65Zm4.73-5.07v5.19c-.16.19-.5.51-.75.51s-.34-.19-.34-.46V14.43H26.15v5.71c0,.67.21,1.22.89,1.22a2,2,0,0,0,1.46-.85v.75h1.27V14.43Zm2.2,13.86c-.45,0-.54.31-.54.76v.66h1.07v-.66C31.24,28.61,31.14,28.29,30.71,28.29Zm-4.7,0-.25.2v4l.28.23a.51.51,0,0,0,.62-.07.74.74,0,0,0,.11-.45V28.93a.8.8,0,0,0-.13-.5A.5.5,0,0,0,26,28.33Zm4.82-5.2c-2.6-.18-11.06-.17-13.66,0C14.35,23.33,14,25,14,29.5s.35,6.17,3.17,6.37c2.6.17,11.06.18,13.66,0C33.65,35.68,34,34,34,29.5S33.65,23.33,30.83,23.13ZM18.51,33.82H17.15V26.28H15.74V25h4.18v1.28H18.51Zm4.85,0H22.15V33.1a2.76,2.76,0,0,1-.7.61c-.65.37-1.55.36-1.55-1V27.31h1.21v5c0,.26.07.44.32.44a1.2,1.2,0,0,0,.71-.49V27.31h1.21v6.51ZM28,32.47c0,.81-.3,1.43-1.1,1.43a1.37,1.37,0,0,1-1.15-.58v.5H24.54V25h1.22v2.84a1.45,1.45,0,0,1,1.07-.61c.89,0,1.18.75,1.18,1.63Zm4.47-1.75H30.17V32c0,.48,0,.91.53.91s.54-.35.54-.91v-.46h1.24V32c0,1.26-.53,2-1.81,2s-1.74-.85-1.74-2V29.06a1.78,1.78,0,0,1,1.83-1.91c1.16,0,1.72.74,1.72,1.91v1.66ZM24,4A20,20,0,1,1,4,24,20,20,0,0,1,24,4Zm0-4A24,24,0,1,0,48,24,24,24,0,0,0,24,0Z"/></g></g></svg>