<?xml version="1.0" encoding="utf-8"?>
<!-- Generator: Adobe Illustrator 24.1.1, SVG Export Plug-In . SVG Version: 6.00 Build 0)  -->
<svg version="1.1" id="Layer_1" xmlns="http://www.w3.org/2000/svg" xmlns:xlink="http://www.w3.org/1999/xlink" x="0px" y="0px"
	 viewBox="0 0 1920 1080" style="enable-background:new 0 0 1920 1080;" xml:space="preserve">
<style type="text/css">
	.st0{fill:#242257;}
	.st1{opacity:0.6;fill:#3C4DA1;enable-background:new    ;}
	.st2{fill:none;stroke:#3C4DA1;stroke-miterlimit:10;}
</style>
<g>
	<rect class="st0" width="1920" height="1080"/>
	<path class="st1" d="M0,0h1272L478,1080H0V0z"/>
</g>
<path class="st2" d="M394.1,566.6c2.7,3.9,21.8,4.2,26.7-0.6c4.9-4.8,2.2-36.4-0.9-40.6c-1.6-2.4-4-4-6.8-4.7
	c-2.8-0.7-5.7-0.3-8.2,1C399,524.6,391.3,562.7,394.1,566.6z"/>
<path class="st2" d="M472.5,1080l-19.9-43.6c-5.8-12.4-19.4-17.5-23.3-30c-3.9-12.4-2.8-46.9-4.4-58.9c-1.6-11.9,9.4-36.1,8.4-42.6
	c-1-6.4-15.8-2.8-21.5-11.1c-5.7-8.3,1.7-40.6,2.8-44.5c1-4,20.2-23.1,19.4-27.8c-0.8-4.7-13.6-3.4-15-5.4c-1.4-2,5.7-35.5,5.7-35.5
	s10-64.7,10.5-71.2c0.4-6.5-13.3-8.1-15-10.9c-1.6-2.8,3.3-105.5,3.3-105.5c0.6-4,2-7.9,4.2-11.4c5.5-1.6,8.3-2.1,9.3-6.1
	c1-4,1.7-51.4-5.2-57.6c-7-6.2-8.6-8.2-8.6-8.2s-3.4-38.8-1.3-40c2.1-1.3,15,4.8,16.6,4.1c1.6-0.7,2.5-4.4,1.5-6.1
	c-1-1.7-23.8-15-24.1-18.4c-0.2-3.4,3.9-16.3,3.9-25.8s-9.3-15-10.9-16c-2.2-4.9-4.7-9.6-7.5-14.2c-4.2-4.9-7.5-3-8.1-11.2
	c-0.6-8.2,1-11.9,12.6-10.4c15.5,2,6.3,15.9,9.6,22.5c3.3,6.6,19.5-1.6,15.9-18.7c-3.6-17.1-26.6-19.4-26.6-22.6
	c0-3.1,33.6-43.4,30-69.7c-3.6-26.3-20.1-30-21.7-37.5c-1.6-7.5,29.2-46.3,15-90.5c-14.2-44.2-32-60.9-33.8-69.3
	c-1.1-4.1-1.1-8.4-0.1-12.5c1-4.1,3-7.9,5.9-11c6.7-8.7,18.7-61.3,18.7-61.3L313.1,0c0,0,11.5,53.5,12.6,57.8c1,2.9,1.1,6.1,0.4,9.1
	c-0.7,3-2.3,5.7-4.6,7.9c-5.9,5.5-15.4,6.4-27.1,3.1s-14.2,27-15.9,30.8c-1.6,3.8,4,10.2,4,10.2s-12.2,7.5-9.7,13.3
	c7.6,3.8,14.5,8.9,20.4,15c-8.9,31,9.4,47,15.7,56.5c1.9,15.7,42.6,49.7,40.6,67.5c-1.9,17.8-18.4,44.3-13.4,54.4
	c4.9,10.1,28.9,33.8,42.8,30.8c0.4,15-13.7,41.8,12.3,53.3c-2,4.8-3,10-2.7,15.2s1.7,10.3,4.1,14.8c-6.7-2.1-13.6-3.7-20.5-5
	c-1.4,0.5-3.8,6.4-2.5,8.2c1.3,1.7,22.5,7,24.3,10.1c4.3,18.6,6.8,37.6,7.5,56.8c-1.3,4.8-10.9,8.5-13.8,13.2
	c-2.8,4.7-11.6,38.4-9,43c3.7,8.3,23.1,16.2,30,16.1c-0.2,3.8-0.9,7.6-1.9,11.3c0,0-4.3,102-9,105.9c-5.7,5.3-10.4,11.6-13.7,18.7
	c-1.4,4.2,10.7,42.8,10.7,42.8s7.5,47.9,2.3,51.2c-5.2,3.3-18.1,15.7-17.9,19c0.2,3.3,12.7,12.4,14.5,14c1.7,1.6,1.2,42.8-1,43.9
	c-2.2,1.1-7.9-3.7-9.4-4.3c-1.5-0.7,1.7-8.2-0.9-10c-4.9,0-22.9,11.4-26.6,11.5c-5.9-3.5-12.5-5.6-19.3-6.1c-6.8-0.5-13.6,0.5-20,3
	c-3.1-6.6,0-27.8-32.7-29.5c-32.7-1.6-47.5,30.4-53.2,48.2c-5.6,17.8,1.5,81.5,9,94.5c7.5,13,43.1,33.9,60.5,35.3
	c17.4,1.4,58.2-27.5,60.4-19.3c2.2,8.2-15,18.8-25.9,36.5c-6.3,9.7-11.3,20.3-14.6,31.3"/>
<path class="st2" d="M243.8,1080l-19.9-43.6c-5.8-12.4-19.4-17.5-23.3-30c-3.9-12.4-2.8-46.9-4.4-58.9c-1.6-11.9,9.4-36.1,8.4-42.6
	c-1-6.4-15.8-2.8-21.5-11.1c-5.7-8.3,1.7-40.6,2.8-44.5c1-4,20.2-23.1,19.4-27.8c-0.8-4.7-13.6-3.4-15-5.4c-1.4-2,5.7-35.5,5.7-35.5
	s10-64.7,10.5-71.2c0.4-6.5-13.3-8.1-15-10.9c-1.6-2.8,3.3-105.5,3.3-105.5c0.6-4,2-7.9,4.2-11.4c5.5-1.6,8.3-2.1,9.3-6.1
	c1-4,1.7-51.4-5.2-57.6c-7-6.2-8.6-8.2-8.6-8.2s-3.4-38.8-1.3-40c2.1-1.3,15,4.8,16.6,4.1c1.6-0.7,2.5-4.4,1.5-6.1
	c-1-1.7-23.8-15-24.1-18.4c-0.2-3.4,3.9-16.3,3.9-25.8s-9.3-15-10.9-16c-2.2-4.9-4.7-9.6-7.5-14.2c-4.2-4.9-7.5-3-8.1-11.2
	c-0.6-8.2,1-11.9,12.6-10.4c15.5,2,6.3,15.9,9.6,22.5c3.3,6.6,19.5-1.6,15.9-18.7c-3.6-17.1-26.6-19.4-26.6-22.6
	c0-3.1,33.6-43.4,30-69.7c-3.6-26.3-20.1-30-21.7-37.5c-1.6-7.5,29.2-46.3,15-90.5c-14.2-44.2-32-60.9-33.8-69.3
	c-1.1-4.1-1.1-8.4-0.1-12.5c1-4.1,3-7.9,5.9-11c6.7-8.7,18.7-61.3,18.7-61.3L84.4,0c0,0,11.5,53.5,12.6,57.8c1,2.9,1.1,6.1,0.4,9.1
	c-0.7,3-2.3,5.7-4.6,7.9c-5.9,5.5-15.4,6.4-27.1,3.1s-14.2,27-15.9,30.8c-1.6,3.8,4,10.2,4,10.2s-12.2,7.5-9.7,13.3
	c7.6,3.8,14.5,8.9,20.4,15c-8.9,31,9.4,47,15.7,56.5c1.9,15.7,42.6,49.7,40.6,67.5c-1.9,17.8-18.4,44.3-13.4,54.4
	c4.9,10.1,28.9,33.8,42.8,30.8c0.4,15-13.7,41.8,12.3,53.3c-2,4.8-3,10-2.7,15.2c0.2,5.2,1.7,10.3,4.1,14.8
	c-6.7-2.1-13.6-3.7-20.5-5c-1.4,0.5-3.8,6.4-2.5,8.2c1.4,1.7,22.5,7,24.3,10.1c4.3,18.6,6.8,37.6,7.5,56.8
	c-1.4,4.8-10.9,8.5-13.8,13.2c-2.8,4.7-11.6,38.4-9,43c3.7,8.3,23.1,16.2,30,16.1c-0.2,3.8-0.9,7.6-1.9,11.3c0,0-4.3,102-9,105.9
	c-5.7,5.3-10.4,11.6-13.7,18.7c-1.3,4.2,10.7,42.8,10.7,42.8s7.5,47.9,2.3,51.2c-5.2,3.3-18.1,15.7-17.9,19
	c0.2,3.3,12.7,12.4,14.5,14c1.7,1.6,1.2,42.8-1,43.9c-2.2,1.1-7.9-3.7-9.4-4.3c-1.5-0.7,1.7-8.2-0.9-10c-4.9,0-22.9,11.4-26.6,11.5
	c-5.9-3.5-12.5-5.6-19.3-6.1c-6.8-0.5-13.6,0.5-20,3c-3.1-6.6,0-27.8-32.7-29.5C22.5,851.8,7.6,883.9,2,901.6
	c-5.6,17.8,1.5,81.5,9,94.5c7.5,13,43.1,33.9,60.5,35.3c17.4,1.4,58.2-27.5,60.4-19.3c2.2,8.2-15,18.8-25.9,36.5
	c-6.3,9.7-11.3,20.3-14.6,31.3"/>
<path class="st2" d="M639.8,566.6c2.7,3.9,21.8,4.2,26.7-0.6c4.9-4.8,2.2-36.4-0.9-40.6c-1.6-2.4-4-4-6.8-4.7
	c-2.8-0.7-5.7-0.3-8.2,1C644.8,524.6,637.1,562.7,639.8,566.6z"/>
<path class="st2" d="M715.5,1080l-19.9-43.6c-5.8-12.4-19.4-17.5-23.3-30c-3.9-12.4-2.8-46.9-4.4-58.9c-1.6-11.9,9.4-36.1,8.4-42.6
	c-1-6.4-15.8-2.8-21.5-11.1c-5.7-8.3,1.7-40.6,2.8-44.5c1-4,20.2-23.1,19.4-27.8c-0.8-4.7-13.6-3.4-15-5.4c-1.4-2,5.7-35.5,5.7-35.5
	s10-64.7,10.5-71.2c0.4-6.5-13.3-8.1-15-10.9c-1.6-2.8,3.3-105.5,3.3-105.5c0.6-4,2-7.9,4.2-11.4c5.5-1.6,8.3-2.1,9.3-6.1
	c1-4,1.7-51.4-5.2-57.6c-7-6.2-8.6-8.2-8.6-8.2s-3.4-38.8-1.3-40c2.1-1.3,15,4.8,16.6,4.1c1.6-0.7,2.5-4.4,1.5-6.1
	c-1-1.7-23.8-15-24.1-18.4c-0.2-3.4,3.9-16.3,3.9-25.8s-9.3-15-10.9-16c-2.2-4.9-4.7-9.6-7.5-14.2c-4.2-4.9-7.5-3-8.1-11.2
	c-0.6-8.2,1-11.9,12.6-10.4c15.5,2,6.3,15.9,9.6,22.5c3.3,6.6,19.5-1.6,15.9-18.7c-3.6-17.1-26.6-19.4-26.6-22.6
	c0-3.1,33.6-43.4,30-69.7c-3.6-26.3-20.1-30-21.7-37.5c-1.6-7.5,29.2-46.3,15-90.5c-14.2-44.2-32-60.9-33.8-69.3
	c-1.1-4.1-1.1-8.4-0.1-12.5c1-4.1,3-7.9,5.9-11c6.7-8.7,18.7-61.3,18.7-61.3L556.1,0c0,0,11.5,53.5,12.6,57.8c1,2.9,1.1,6.1,0.4,9.1
	c-0.7,3-2.3,5.7-4.6,7.9c-5.9,5.5-15.4,6.4-27.1,3.1c-11.6-3.3-14.2,27-15.9,30.8c-1.6,3.8,4,10.2,4,10.2s-12.2,7.5-9.7,13.3
	c7.6,3.8,14.5,8.9,20.4,15c-8.9,31,9.4,47,15.7,56.5c1.9,15.7,42.6,49.7,40.6,67.5c-1.9,17.8-18.4,44.3-13.4,54.4
	c4.9,10.1,28.9,33.8,42.8,30.8c0.4,15-13.7,41.8,12.3,53.3c-2,4.8-3,10-2.7,15.2c0.2,5.2,1.7,10.3,4.1,14.8
	c-6.7-2.1-13.6-3.7-20.5-5c-1.4,0.5-3.8,6.4-2.5,8.2c1.3,1.7,22.5,7,24.3,10.1c4.3,18.6,6.8,37.6,7.5,56.8
	c-1.4,4.8-10.9,8.5-13.8,13.2c-2.8,4.7-11.6,38.4-9,43c3.7,8.3,23.1,16.2,30,16.1c-0.2,3.8-0.9,7.6-1.9,11.3c0,0-4.3,102-9,105.9
	c-5.7,5.3-10.4,11.6-13.7,18.7c-1.4,4.2,10.7,42.8,10.7,42.8s7.5,47.9,2.3,51.2c-5.2,3.3-18.1,15.7-17.9,19
	c0.2,3.3,12.7,12.4,14.5,14c1.7,1.6,1.2,42.8-1,43.9c-2.2,1.1-7.9-3.7-9.4-4.3s1.7-8.2-0.9-10c-4.9,0-22.9,11.4-26.6,11.5
	c-5.9-3.5-12.5-5.6-19.3-6.1c-6.8-0.5-13.6,0.5-20,3c-3.1-6.6,0-27.8-32.7-29.5c-32.7-1.6-47.5,30.4-53.2,48.2
	c-5.6,17.8,1.5,81.5,9,94.5c7.5,13,43.1,33.9,60.5,35.3c17.4,1.4,58.2-27.5,60.4-19.3c2.2,8.2-15,18.8-25.9,36.5
	c-6.3,9.7-11.3,20.3-14.6,31.3"/>
<path class="st2" d="M885.6,566.6c2.7,3.9,21.8,4.2,26.7-0.6c4.9-4.8,2.2-36.4-0.9-40.6c-1.6-2.4-4-4-6.8-4.7
	c-2.8-0.7-5.7-0.3-8.2,1C890.5,524.6,882.8,562.7,885.6,566.6z"/>
<path class="st2" d="M961.2,1080l-19.9-43.6c-5.8-12.4-19.4-17.5-23.3-30c-3.9-12.4-2.8-46.9-4.4-58.9c-1.6-11.9,9.4-36.1,8.4-42.6
	c-1-6.4-15.8-2.8-21.5-11.1c-5.7-8.3,1.7-40.6,2.8-44.5c1-4,20.2-23.1,19.4-27.8c-0.8-4.7-13.6-3.4-15-5.4c-1.4-2,5.7-35.5,5.7-35.5
	s10-64.7,10.5-71.2c0.4-6.5-13.3-8.1-15-10.9c-1.6-2.8,3.3-105.5,3.3-105.5c0.6-4,2-7.9,4.2-11.4c5.5-1.6,8.3-2.1,9.3-6.1
	c1-4,1.7-51.4-5.2-57.6c-7-6.2-8.6-8.2-8.6-8.2s-3.4-38.8-1.3-40c2.1-1.3,15,4.8,16.6,4.1c1.6-0.7,2.5-4.4,1.5-6.1
	c-1-1.7-23.8-15-24.1-18.4c-0.2-3.4,3.9-16.3,3.9-25.8s-9.3-15-10.9-16c-2.2-4.9-4.7-9.6-7.5-14.2c-4.2-4.9-7.5-3-8.1-11.2
	c-0.6-8.2,1-11.9,12.6-10.4c15.5,2,6.3,15.9,9.6,22.5c3.3,6.6,19.5-1.6,15.9-18.7c-3.6-17.1-26.6-19.4-26.6-22.6
	c0-3.1,33.6-43.4,30-69.7c-3.6-26.3-20.1-30-21.7-37.5c-1.6-7.5,29.2-46.3,15-90.5c-14.2-44.2-32-60.9-33.8-69.3
	c-1.1-4.1-1.1-8.4-0.1-12.5c1-4.1,3-7.9,5.9-11c6.7-8.7,18.7-61.3,18.7-61.3L801.8,0c0,0,11.5,53.5,12.6,57.8c1,2.9,1.1,6.1,0.4,9.1
	c-0.7,3-2.3,5.7-4.6,7.9c-5.9,5.5-15.4,6.4-27.1,3.1c-11.6-3.3-14.2,27-15.9,30.8c-1.6,3.8,4,10.2,4,10.2s-12.2,7.5-9.7,13.3
	c7.6,3.8,14.5,8.9,20.4,15c-8.9,31,9.4,47,15.7,56.5c1.9,15.7,42.6,49.7,40.6,67.5c-1.9,17.8-18.4,44.3-13.4,54.4
	c4.9,10.1,28.9,33.8,42.8,30.8c0.4,15-13.7,41.8,12.3,53.3c-2,4.8-3,10-2.7,15.2c0.2,5.2,1.7,10.3,4.1,14.8
	c-6.7-2.1-13.6-3.7-20.5-5c-1.4,0.5-3.8,6.4-2.5,8.2c1.3,1.7,22.5,7,24.3,10.1c4.3,18.6,6.8,37.6,7.5,56.8
	c-1.4,4.8-10.9,8.5-13.8,13.2c-2.8,4.7-11.6,38.4-9,43c3.7,8.3,23.1,16.2,30,16.1c-0.2,3.8-0.9,7.6-1.9,11.3c0,0-4.3,102-9,105.9
	c-5.7,5.3-10.4,11.6-13.7,18.7c-1.4,4.2,10.7,42.8,10.7,42.8s7.5,47.9,2.3,51.2c-5.2,3.3-18.1,15.7-17.9,19
	c0.2,3.3,12.7,12.4,14.5,14c1.7,1.6,1.2,42.8-1,43.9c-2.2,1.1-7.9-3.7-9.4-4.3s1.7-8.2-0.9-10c-4.9,0-22.9,11.4-26.6,11.5
	c-5.9-3.5-12.5-5.6-19.3-6.1c-6.8-0.5-13.6,0.5-20,3c-3.1-6.6,0-27.8-32.7-29.5c-32.7-1.6-47.5,30.4-53.2,48.2
	c-5.6,17.8,1.5,81.5,9,94.5c7.5,13,43.1,33.9,60.5,35.3c17.4,1.4,58.2-27.5,60.4-19.3c2.2,8.2-15,18.8-25.9,36.5
	c-6.3,9.7-11.3,20.3-14.6,31.3"/>
<path class="st2" d="M1131.3,566.6c2.7,3.9,21.8,4.2,26.7-0.6c4.9-4.8,2.2-36.4-0.9-40.6c-1.6-2.4-4-4-6.8-4.7
	c-2.8-0.7-5.7-0.3-8.2,1C1136.3,524.6,1128.6,562.7,1131.3,566.6z"/>
<path class="st2" d="M1207,1080l-19.9-43.6c-5.8-12.4-19.4-17.5-23.3-30c-3.9-12.4-2.8-46.9-4.4-58.9s9.4-36.1,8.4-42.6
	c-1-6.4-15.8-2.8-21.5-11.1c-5.7-8.3,1.7-40.6,2.8-44.5c1-4,20.2-23.1,19.4-27.8c-0.8-4.7-13.6-3.4-15-5.4c-1.4-2,5.7-35.5,5.7-35.5
	s10-64.7,10.5-71.2c0.4-6.5-13.3-8.1-15-10.9c-1.6-2.8,3.3-105.5,3.3-105.5c0.6-4,2-7.9,4.2-11.4c5.5-1.6,8.3-2.1,9.3-6.1
	c1-4,1.7-51.4-5.2-57.6c-7-6.2-8.6-8.2-8.6-8.2s-3.4-38.8-1.3-40c2.1-1.3,15,4.8,16.6,4.1c1.6-0.7,2.5-4.4,1.5-6.1
	c-1-1.7-23.8-15-24.1-18.4c-0.2-3.4,3.9-16.3,3.9-25.8s-9.3-15-10.9-16c-2.2-4.9-4.7-9.6-7.5-14.2c-4.2-4.9-7.5-3-8.1-11.2
	c-0.6-8.2,1-11.9,12.6-10.4c15.5,2,6.3,15.9,9.6,22.5c3.3,6.6,19.5-1.6,15.9-18.7s-26.6-19.4-26.6-22.6c0-3.1,33.6-43.4,30-69.7
	c-3.6-26.3-20.1-30-21.7-37.5c-1.6-7.5,29.2-46.3,15-90.5c-14.2-44.2-32-60.9-33.8-69.3c-1.1-4.1-1.1-8.4-0.1-12.5
	c1-4.1,3-7.9,5.9-11c6.7-8.7,18.7-61.3,18.7-61.3L1047.6,0c0,0,11.5,53.5,12.6,57.8c1,2.9,1.1,6.1,0.4,9.1c-0.7,3-2.3,5.7-4.6,7.9
	c-5.9,5.5-15.4,6.4-27.1,3.1c-11.6-3.3-14.2,27-15.9,30.8c-1.6,3.8,4,10.2,4,10.2s-12.2,7.5-9.7,13.3c7.6,3.8,14.5,8.9,20.4,15
	c-8.9,31,9.4,47,15.7,56.5c1.9,15.7,42.6,49.7,40.6,67.5c-1.9,17.8-18.4,44.3-13.4,54.4c4.9,10.1,28.9,33.8,42.8,30.8
	c0.4,15-13.7,41.8,12.3,53.3c-2,4.8-3,10-2.7,15.2s1.7,10.3,4.1,14.8c-6.7-2.1-13.6-3.7-20.5-5c-1.4,0.5-3.8,6.4-2.5,8.2
	c1.3,1.7,22.5,7,24.3,10.1c4.3,18.6,6.8,37.6,7.5,56.8c-1.4,4.8-10.9,8.5-13.8,13.2c-2.8,4.7-11.6,38.4-9,43
	c3.7,8.3,23.1,16.2,30,16.1c-0.2,3.8-0.9,7.6-1.9,11.3c0,0-4.3,102-9,105.9c-5.7,5.3-10.4,11.6-13.7,18.7
	c-1.4,4.2,10.7,42.8,10.7,42.8s7.5,47.9,2.3,51.2c-5.2,3.3-18.1,15.7-17.9,19c0.2,3.3,12.7,12.4,14.5,14c1.7,1.6,1.2,42.8-1,43.9
	c-2.2,1.1-7.9-3.7-9.4-4.3s1.7-8.2-0.9-10c-4.9,0-22.9,11.4-26.6,11.5c-5.9-3.5-12.5-5.6-19.3-6.1c-6.8-0.5-13.6,0.5-20,3
	c-3.1-6.6,0-27.8-32.7-29.5c-32.7-1.6-47.5,30.4-53.2,48.2c-5.6,17.8,1.5,81.5,9,94.5c7.5,13,43.1,33.9,60.5,35.3
	c17.4,1.4,58.2-27.5,60.4-19.3c2.2,8.2-15,18.8-25.9,36.5c-6.3,9.7-11.3,20.3-14.6,31.3"/>
<path class="st2" d="M1377.1,566.6c2.7,3.9,21.8,4.2,26.7-0.6c4.9-4.8,2.2-36.4-0.9-40.6c-1.6-2.4-4-4-6.8-4.7
	c-2.8-0.7-5.7-0.3-8.2,1C1382,524.6,1374.3,562.7,1377.1,566.6z"/>
<path class="st2" d="M1452.7,1080l-19.9-43.6c-5.8-12.4-19.4-17.5-23.3-30c-3.9-12.4-2.8-46.9-4.4-58.9c-1.7-11.9,9.4-36.1,8.4-42.6
	c-1-6.4-15.8-2.8-21.5-11.1c-5.7-8.3,1.7-40.6,2.8-44.5c1-4,20.2-23.1,19.4-27.8c-0.8-4.7-13.6-3.4-15-5.4c-1.4-2,5.7-35.5,5.7-35.5
	s10-64.7,10.5-71.2c0.4-6.5-13.4-8.1-15-10.9c-1.6-2.8,3.3-105.5,3.3-105.5c0.6-4,2-7.9,4.2-11.4c5.5-1.6,8.3-2.1,9.3-6.1
	c1-4,1.7-51.4-5.2-57.6c-7-6.2-8.6-8.2-8.6-8.2s-3.4-38.8-1.3-40c2.1-1.3,15,4.8,16.6,4.1c1.6-0.7,2.5-4.4,1.5-6.1
	c-1-1.7-23.8-15-24.1-18.4c-0.2-3.4,3.9-16.3,3.9-25.8s-9.3-15-10.9-16c-2.2-4.9-4.7-9.6-7.5-14.2c-4.2-4.9-7.5-3-8.1-11.2
	c-0.6-8.2,1-11.9,12.6-10.4c15.5,2,6.3,15.9,9.6,22.5c3.3,6.6,19.5-1.6,15.9-18.7c-3.6-17.1-26.6-19.4-26.6-22.6
	c0-3.1,33.6-43.4,30-69.7c-3.6-26.3-20.1-30-21.7-37.5c-1.6-7.5,29.2-46.3,15-90.5c-14.2-44.2-32-60.9-33.8-69.3
	c-1.1-4.1-1.1-8.4-0.1-12.5c1-4.1,3-7.9,5.9-11c6.8-8.7,18.7-61.3,18.7-61.3L1293.3,0c0,0,11.5,53.5,12.6,57.8
	c1,2.9,1.1,6.1,0.4,9.1c-0.7,3-2.3,5.7-4.6,7.9c-5.9,5.5-15.4,6.4-27.1,3.1c-11.6-3.3-14.2,27-15.9,30.8c-1.6,3.8,4,10.2,4,10.2
	s-12.2,7.5-9.7,13.3c7.6,3.8,14.5,8.9,20.4,15c-8.9,31,9.4,47,15.7,56.5c2,15.7,42.6,49.7,40.6,67.5c-2,17.8-18.4,44.3-13.4,54.4
	c5,10.1,28.9,33.8,42.8,30.8c0.5,15-13.7,41.8,12.3,53.3c-2,4.8-3,10-2.7,15.2s1.7,10.3,4.1,14.8c-6.7-2.1-13.6-3.7-20.5-5
	c-1.4,0.5-3.8,6.4-2.5,8.2c1.4,1.7,22.5,7,24.3,10.1c4.3,18.6,6.8,37.6,7.5,56.8c-1.4,4.8-10.9,8.5-13.8,13.2
	c-2.8,4.7-11.6,38.4-9,43c3.7,8.3,23.1,16.2,30,16.1c-0.2,3.8-0.9,7.6-1.9,11.3c0,0-4.3,102-9,105.9c-5.7,5.3-10.4,11.6-13.7,18.7
	c-1.3,4.2,10.7,42.8,10.7,42.8s7.5,47.9,2.3,51.2c-5.2,3.3-18.2,15.7-17.9,19c0.2,3.3,12.7,12.4,14.5,14c1.7,1.6,1.2,42.8-1,43.9
	c-2.2,1.1-7.9-3.7-9.4-4.3c-1.5-0.7,1.7-8.2-0.9-10c-4.9,0-22.9,11.4-26.6,11.5c-5.9-3.5-12.5-5.6-19.3-6.1c-6.8-0.5-13.6,0.5-20,3
	c-3.1-6.6,0-27.8-32.7-29.5c-32.7-1.6-47.5,30.4-53.2,48.2c-5.6,17.8,1.5,81.5,9,94.5c7.5,13,43.1,33.9,60.5,35.3
	c17.4,1.4,58.2-27.5,60.4-19.3c2.2,8.2-15,18.8-25.9,36.5c-6.3,9.7-11.2,20.3-14.6,31.3"/>
<path class="st2" d="M1622.8,566.6c2.7,3.9,21.8,4.2,26.7-0.6c4.9-4.8,2.2-36.4-0.9-40.6c-1.6-2.4-4-4-6.8-4.7
	c-2.8-0.7-5.7-0.3-8.2,1C1627.8,524.6,1620,562.7,1622.8,566.6z"/>
<path class="st2" d="M1698.5,1080l-19.9-43.6c-5.8-12.4-19.4-17.5-23.3-30c-3.9-12.4-2.8-46.9-4.4-58.9c-1.7-11.9,9.4-36.1,8.4-42.6
	c-1-6.4-15.8-2.8-21.5-11.1c-5.7-8.3,1.7-40.6,2.8-44.5c1-4,20.2-23.1,19.4-27.8c-0.8-4.7-13.6-3.4-15-5.4c-1.4-2,5.7-35.5,5.7-35.5
	s10-64.7,10.5-71.2c0.4-6.5-13.4-8.1-15-10.9c-1.6-2.8,3.3-105.5,3.3-105.5c0.6-4,2-7.9,4.2-11.4c5.5-1.6,8.3-2.1,9.3-6.1
	c1-4,1.7-51.4-5.2-57.6c-7-6.2-8.6-8.2-8.6-8.2s-3.4-38.8-1.3-40c2.1-1.3,15,4.8,16.6,4.1c1.6-0.7,2.5-4.4,1.5-6.1
	c-1-1.7-23.8-15-24.1-18.4c-0.2-3.4,3.9-16.3,3.9-25.8s-9.3-15-10.9-16c-2.2-4.9-4.7-9.6-7.5-14.2c-4.2-4.9-7.5-3-8.1-11.2
	c-0.6-8.2,1-11.9,12.6-10.4c15.5,2,6.3,15.9,9.6,22.5c3.3,6.6,19.5-1.6,15.9-18.7c-3.6-17.1-26.6-19.4-26.6-22.6
	c0-3.1,33.6-43.4,30-69.7c-3.6-26.3-20.1-30-21.7-37.5c-1.6-7.5,29.2-46.3,15-90.5c-14.2-44.2-32-60.9-33.8-69.3
	c-1.1-4.1-1.1-8.4-0.1-12.5c1-4.1,3-7.9,5.9-11c6.8-8.7,18.7-61.3,18.7-61.3L1539.1,0c0,0,11.5,53.5,12.6,57.8
	c1,2.9,1.1,6.1,0.4,9.1c-0.7,3-2.3,5.7-4.6,7.9c-5.9,5.5-15.4,6.4-27.1,3.1s-14.2,27-15.9,30.8c-1.6,3.8,4,10.2,4,10.2
	s-12.2,7.5-9.7,13.3c7.6,3.8,14.5,8.9,20.4,15c-8.9,31,9.4,47,15.7,56.5c2,15.7,42.6,49.7,40.6,67.5c-2,17.8-18.4,44.3-13.4,54.4
	c5,10.1,28.9,33.8,42.8,30.8c0.5,15-13.7,41.8,12.3,53.3c-2,4.8-3,10-2.7,15.2s1.7,10.3,4.1,14.8c-6.7-2.1-13.6-3.7-20.5-5
	c-1.4,0.5-3.8,6.4-2.5,8.2c1.4,1.7,22.5,7,24.3,10.1c4.3,18.6,6.8,37.6,7.5,56.8c-1.4,4.8-10.9,8.5-13.8,13.2
	c-2.8,4.7-11.6,38.4-9,43c3.7,8.3,23.1,16.2,30,16.1c-0.2,3.8-0.9,7.6-1.9,11.3c0,0-4.3,102-9,105.9c-5.7,5.3-10.4,11.6-13.7,18.7
	c-1.3,4.2,10.7,42.8,10.7,42.8s7.5,47.9,2.3,51.2c-5.2,3.3-18.2,15.7-17.9,19c0.2,3.3,12.7,12.4,14.5,14c1.7,1.6,1.2,42.8-1,43.9
	c-2.2,1.1-7.9-3.7-9.4-4.3c-1.5-0.7,1.7-8.2-0.9-10c-4.9,0-22.9,11.4-26.6,11.5c-5.9-3.5-12.5-5.6-19.3-6.1c-6.8-0.5-13.6,0.5-20,3
	c-3.1-6.6,0-27.8-32.7-29.5c-32.7-1.6-47.5,30.4-53.2,48.2c-5.6,17.8,1.5,81.5,9,94.5c7.5,13,43.1,33.9,60.5,35.3
	c17.4,1.4,58.2-27.5,60.4-19.3c2.2,8.2-15,18.8-25.9,36.5c-6.3,9.7-11.2,20.3-14.6,31.3"/>
<path class="st2" d="M1920,1080l-19.9-43.6c-5.8-12.4-19.4-17.5-23.3-30c-3.9-12.4-2.8-46.9-4.4-58.9c-1.7-11.9,9.4-36.1,8.4-42.6
	c-1-6.4-15.8-2.8-21.5-11.1c-5.7-8.3,1.7-40.6,2.8-44.5c1-4,20.2-23.1,19.4-27.8c-0.8-4.7-13.6-3.4-15-5.4c-1.4-2,5.7-35.5,5.7-35.5
	s10-64.7,10.5-71.2c0.4-6.5-13.4-8.1-15-10.9c-1.6-2.8,3.3-105.5,3.3-105.5c0.6-4,2-7.9,4.2-11.4c5.5-1.6,8.3-2.1,9.3-6.1
	c1-4,1.7-51.4-5.2-57.6c-7-6.2-8.6-8.2-8.6-8.2s-3.4-38.8-1.3-40c2.1-1.3,15,4.8,16.6,4.1c1.6-0.7,2.5-4.4,1.5-6.1
	c-1-1.7-23.8-15-24.1-18.4c-0.2-3.4,3.9-16.3,3.9-25.8s-9.3-15-10.9-16c-2.2-4.9-4.7-9.6-7.5-14.2c-4.2-4.9-7.5-3-8.1-11.2
	c-0.6-8.2,1-11.9,12.6-10.4c15.5,2,6.3,15.9,9.6,22.5c3.3,6.6,19.5-1.6,15.9-18.7c-3.6-17.1-26.6-19.4-26.6-22.6
	c0-3.1,33.6-43.4,30-69.7c-3.6-26.3-20.1-30-21.7-37.5c-1.6-7.5,29.2-46.3,15-90.5c-14.2-44.2-32-60.9-33.8-69.3
	c-1.1-4.1-1.1-8.4-0.1-12.5c1-4.1,3-7.9,5.9-11c6.8-8.7,18.7-61.3,18.7-61.3L1760.6,0c0,0,11.5,53.5,12.6,57.8
	c1,2.9,1.1,6.1,0.4,9.1c-0.7,3-2.3,5.7-4.6,7.9c-5.9,5.5-15.4,6.4-27.1,3.1s-14.2,27-15.9,30.8c-1.6,3.8,4,10.2,4,10.2
	s-12.2,7.5-9.7,13.3c7.6,3.8,14.5,8.9,20.4,15c-8.9,31,9.4,47,15.7,56.5c2,15.7,42.6,49.7,40.6,67.5c-2,17.8-18.4,44.3-13.4,54.4
	c5,10.1,28.9,33.8,42.8,30.8c0.5,15-13.7,41.8,12.3,53.3c-2,4.8-3,10-2.7,15.2s1.7,10.3,4.1,14.8c-6.7-2.1-13.6-3.7-20.5-5
	c-1.4,0.5-3.8,6.4-2.5,8.2c1.3,1.7,22.5,7,24.3,10.1c4.3,18.6,6.8,37.6,7.5,56.8c-1.4,4.8-10.9,8.5-13.8,13.2
	c-2.8,4.7-11.6,38.4-9,43c3.7,8.3,23.1,16.2,30,16.1c-0.2,3.8-0.9,7.6-1.9,11.3c0,0-4.3,102-9,105.9c-5.7,5.3-10.4,11.6-13.7,18.7
	c-1.3,4.2,10.7,42.8,10.7,42.8s7.5,47.9,2.3,51.2c-5.2,3.3-18.2,15.7-17.9,19c0.2,3.3,12.7,12.4,14.5,14c1.7,1.6,1.2,42.8-1,43.9
	c-2.2,1.1-7.9-3.7-9.4-4.3c-1.5-0.7,1.7-8.2-0.9-10c-4.9,0-22.9,11.4-26.6,11.5c-5.9-3.5-12.5-5.6-19.3-6.1c-6.8-0.5-13.6,0.5-20,3
	c-3.1-6.6,0-27.8-32.7-29.5c-32.7-1.6-47.5,30.4-53.2,48.2c-5.6,17.8,1.5,81.5,9,94.5c7.5,13,43.1,33.9,60.5,35.3
	c17.4,1.4,58.2-27.5,60.4-19.3c2.2,8.2-15,18.8-25.9,36.5c-6.3,9.7-11.2,20.3-14.6,31.3"/>
</svg>
