<svg xmlns="http://www.w3.org/2000/svg" viewBox="0 0 48 48"><defs><style>.cls-1{fill:#ffdb57;}</style></defs><g id="Layer_2" data-name="Layer 2"><g id="Layer_1-2" data-name="Layer 1"><path class="cls-1" d="M24,4A20,20,0,1,1,4,24,20,20,0,0,1,24,4Zm0-4A24,24,0,1,0,48,24,24,24,0,0,0,24,0Zm0,14.16c3.2,0,3.58,0,4.85.07,3.25.15,4.77,1.69,4.92,4.92.06,1.27.07,1.65.07,4.85s0,3.58-.07,4.85c-.15,3.22-1.66,4.77-4.92,4.92-1.27,0-1.64.07-4.85.07s-3.58,0-4.85-.07c-3.26-.15-4.77-1.7-4.92-4.92-.05-1.27-.07-1.65-.07-4.85s0-3.58.07-4.85c.15-3.23,1.67-4.77,4.92-4.92C20.42,14.17,20.8,14.16,24,14.16ZM24,12c-3.26,0-3.67,0-4.95.07-4.36.2-6.78,2.62-7,7C12,20.33,12,20.74,12,24s0,3.67.07,4.95c.2,4.36,2.62,6.78,7,7C20.33,36,20.74,36,24,36s3.67,0,4.95-.07c4.35-.2,6.78-2.62,7-7C36,27.67,36,27.26,36,24s0-3.67-.07-4.95c-.2-4.35-2.62-6.78-7-7C27.67,12,27.26,12,24,12Zm0,5.84A6.16,6.16,0,1,0,30.16,24,6.16,6.16,0,0,0,24,17.84ZM24,28a4,4,0,1,1,4-4A4,4,0,0,1,24,28Zm6.4-11.84a1.44,1.44,0,1,0,1.45,1.44A1.44,1.44,0,0,0,30.4,16.16Z"/></g></g></svg>